<svg width="1200" height="725" viewBox="0 0 1200 725" fill="none" xmlns="http://www.w3.org/2000/svg">
<path fill-rule="evenodd" clip-rule="evenodd" d="M552.774 133.09L549.929 137.967H547.2L546.33 139.401H549.087L543.018 149.784C541.741 151.992 542.642 154.03 545.08 154.03C546.303 154.03 547.618 153.393 548.933 152.409L548.155 153.743H551.201L555.789 145.856C560.433 140.089 562.495 140.836 561.188 143.046L557.268 149.786C555.99 151.996 556.891 154.034 559.329 154.034C561.125 154.034 563.117 152.664 565.022 150.829C565.168 152.686 566.689 154.034 569.112 154.034C572.535 154.034 575.932 151.394 578.428 148.526C578.231 148.123 577.709 147.665 577.302 147.493L577.099 147.719C574.921 150.216 572.135 152.194 570.017 152.194C568.157 152.194 567.053 151.048 568.447 148.639L568.737 148.119C570.683 148.924 574.341 148.55 576.605 144.679L577.042 143.932C578.667 141.179 577.1 139.114 574.632 139.114C572.193 139.114 570.249 140.377 568.972 142.555L566.042 147.52L565.866 147.72C563.689 150.214 561.571 152.192 560.235 152.192C559.569 152.192 559.189 151.732 559.885 150.557L564.24 143.014C565.546 140.749 564.3 139.114 562.616 139.114C561.309 139.114 559.914 139.831 558.406 141.379L563.224 133.09H560.205L551.782 147.528L551.612 147.718C549.436 150.214 547.315 152.192 545.979 152.192C545.312 152.192 544.935 151.732 545.633 150.557L552.105 139.399H554.572L555.444 137.966H552.948L555.793 133.091L552.774 133.09ZM520.465 137.969L523.31 133.094H526.329L523.483 137.967H525.982L525.11 139.403H522.645L516.169 150.561C515.472 151.736 515.85 152.196 516.517 152.196C517.852 152.196 519.974 150.217 522.15 147.721L522.306 147.545L523.543 145.455L525.023 142.902C526.765 139.918 528.563 139.002 530.885 139.002C533.731 139.002 535.414 141.955 533.586 145.082L530.741 149.928C532.252 149.899 533.935 149.184 535.299 147.721L535.504 147.493C535.91 147.665 536.432 148.122 536.632 148.526C535.092 150.332 532.248 151.422 530.448 151.422H529.782C526.513 155.506 521.166 154.763 521.172 150.961C519.306 152.73 517.369 154.034 515.615 154.034C513.177 154.034 512.276 151.996 513.554 149.787L519.622 139.404H516.865L517.735 137.969H520.465ZM531.263 143.967C532.291 142.225 531.825 141.02 530.841 140.93C530.076 140.86 528.998 141.466 528.071 143.022L526.62 145.459L524.326 149.387C522.526 152.484 525.983 152.943 527.405 150.533L527.435 150.477C527.26 150.189 527.144 149.844 527.144 149.473C527.144 148.498 527.927 147.694 528.914 147.694H529.059L531.263 143.967ZM574.575 143.936C575.587 142.192 575.055 141.275 574.086 141.332V141.333C573.334 141.377 572.317 142.011 571.554 143.303L569.608 146.66C570.741 147.062 572.688 147.12 574.138 144.682L574.575 143.936ZM618.404 135.869C616.69 137.389 616.546 139.083 617.621 140.459L617.883 140.803L617.821 140.89C616.492 142.746 614.718 145.225 612.773 147.487L612.775 147.49L612.572 147.719C611.207 149.18 609.526 149.899 608.014 149.928L610.857 145.08C612.687 141.954 611.004 139 608.157 139C605.837 139 604.037 139.918 602.297 142.9L600.813 145.453L599.575 147.545L599.421 147.721C596.924 150.561 594.778 152.392 592.396 153.397L599.159 141.983H597.389C597.389 140.749 596.113 139.113 594.225 139.113C592.601 139.113 590.335 140.378 589.057 142.557L584.819 149.784C583.541 151.992 584.441 154.03 586.879 154.03C587.722 154.03 588.739 153.656 589.756 153.026L588.913 154.43C584.849 155.663 582.293 157.298 582.293 159.536C582.293 162.405 586.735 163.007 588.913 159.336L591.205 155.406C593.621 154.663 595.988 153.259 598.445 150.942C598.424 154.759 603.782 155.509 607.055 151.418H607.723C609.523 151.418 612.368 150.329 613.907 148.522C615.356 146.858 616.487 145.367 618.897 142.127L619.302 142.616C619.679 143.103 619.827 143.706 619.477 144.307L616.284 149.786C615.004 151.996 615.905 154.032 618.345 154.032C619.875 154.032 621.549 153.037 623.187 151.61C623.137 152.996 624.074 154.032 625.806 154.032C626.646 154.032 627.663 153.659 628.68 153.028L627.838 154.43C623.773 155.663 621.222 157.298 621.222 159.536C621.222 162.405 625.662 163.006 627.838 159.336L630.13 155.406C632.59 154.648 635 153.2 637.507 150.807C637.643 152.675 639.165 154.032 641.597 154.032C644.055 154.032 646.496 152.669 648.601 150.842C648.484 154.747 653.911 155.545 657.213 151.42H657.881C658.826 151.42 660.056 151.112 661.238 150.567C660.425 152.64 661.172 154.032 662.899 154.032C664.555 154.032 666.412 152.54 667.863 151.164C667.573 152.769 668.53 154.032 670.447 154.032C672.943 154.032 675.817 151.395 678.315 148.526L678.313 148.524C679.668 146.98 680.896 145.348 681.883 144.038L681.883 144.038C682.143 143.692 682.387 143.369 682.611 143.076C682.211 144.116 682.017 145.435 681.827 146.728C681.452 149.283 681.091 151.736 679.185 151.736C678.169 151.736 677.765 150.646 677.765 150.646L675.875 151.621C675.875 151.621 676.426 154.033 679.185 154.033C679.453 154.033 679.697 154.007 679.959 153.98L680.025 153.973C680.04 153.973 680.055 153.966 680.071 153.959C680.076 153.957 680.082 153.954 680.087 153.952C680.094 153.95 680.1 153.948 680.106 153.947C680.109 153.946 680.113 153.946 680.116 153.946C683.192 153.546 686.24 151.136 688.504 148.526C688.331 148.067 687.808 147.608 687.374 147.492L687.171 147.721C686.106 148.953 684.886 150.042 683.541 150.961C683.916 149.847 684.113 148.5 684.326 147.043C684.657 144.785 685.025 142.265 686.155 139.947L683.891 138.742C683.66 139.055 683.379 139.443 683.056 139.888L683.056 139.888C681.633 141.851 679.41 144.918 677.185 147.49V147.492L676.982 147.721C674.806 150.217 672.687 152.193 671.351 152.193C670.684 152.193 670.306 151.734 671.004 150.559L677.448 139.401H674.428L669.058 148.666C666.765 150.73 664.996 151.878 664.414 151.619C663.714 151.328 664.313 150.343 664.705 149.699L664.737 149.646C664.756 149.615 664.775 149.584 664.792 149.555L670.685 139.403H667.665L662.931 147.495L662.732 147.721C661.368 149.184 659.685 149.901 658.174 149.931L661.019 145.082C662.847 141.955 661.169 139.002 658.32 139.002C655.997 139.002 654.197 139.92 652.456 142.905L650.974 145.455L649.737 147.545L649.582 147.723C647.406 150.219 644.618 152.196 642.499 152.196C640.641 152.196 639.539 151.05 640.932 148.641L641.222 148.123C643.166 148.927 646.826 148.553 649.089 144.68L649.527 143.934C651.15 141.18 649.585 139.115 647.117 139.115C644.677 139.115 642.73 140.38 641.454 142.559L638.528 147.524L638.353 147.721C635.854 150.561 633.708 152.394 631.325 153.399L638.089 141.983H636.317C636.317 140.749 635.04 139.115 633.153 139.115C631.528 139.115 629.264 140.378 627.986 142.557L625.09 147.494L625.082 147.49L624.879 147.72C622.703 150.215 620.581 152.194 619.245 152.194C618.578 152.194 618.203 151.734 618.899 150.559L621.917 145.339C622.962 143.532 622.468 142.469 621.48 141.293L619.797 139.283C619.362 138.738 619.362 138.137 619.972 137.563L618.404 135.869ZM608.534 143.967C609.561 142.225 609.094 141.019 608.11 140.929V140.93C607.346 140.86 606.27 141.466 605.342 143.022L603.889 145.459L601.597 149.387C599.797 152.484 603.253 152.943 604.675 150.533L604.703 150.477C604.529 150.189 604.413 149.844 604.413 149.473C604.413 148.498 605.197 147.694 606.183 147.694H606.33L608.534 143.967ZM658.268 140.929C659.252 141.019 659.721 142.225 658.694 143.967L656.488 147.694H656.341C655.355 147.694 654.573 148.498 654.573 149.473C654.573 149.844 654.689 150.189 654.862 150.477L654.832 150.533C653.411 152.943 649.957 152.484 651.757 149.387L654.049 145.459L655.5 143.022C656.427 141.466 657.503 140.86 658.268 140.93V140.929ZM647.053 143.936C648.065 142.193 647.536 141.277 646.568 141.334V141.335C645.816 141.379 644.798 142.013 644.036 143.305L642.088 146.66C643.221 147.062 645.167 147.12 646.618 144.682L647.053 143.936ZM594.165 141.535C595.188 141.529 595.843 142.419 595.01 143.935L592.718 147.895C590.888 150.792 589.058 152.195 587.78 152.195C587.113 152.195 586.735 151.736 587.431 150.561L591.643 143.305C592.353 142.088 593.37 141.54 594.165 141.535ZM633.933 143.935C634.766 142.419 634.111 141.529 633.088 141.535C632.293 141.54 631.276 142.088 630.566 143.305L626.356 150.561C625.662 151.736 626.038 152.195 626.705 152.195C627.981 152.195 629.813 150.792 631.641 147.895L633.933 143.935ZM587.75 156.443L587.749 156.444C585.459 157.332 584.732 158.22 584.732 158.994C584.732 159.797 585.748 159.968 586.386 158.85L587.749 156.444L587.75 156.444V156.443ZM626.674 156.444L626.675 156.443V156.444L626.674 156.444ZM626.674 156.444L625.313 158.85C624.673 159.968 623.657 159.797 623.657 158.994C623.657 158.22 624.383 157.332 626.674 156.444ZM472.025 144.831H500.947V146.781H472.025V144.831ZM727.977 144.831H699.055V146.781H727.977V144.831Z" fill="#766458"/>
<path fill-rule="evenodd" clip-rule="evenodd" d="M565.824 114.364V122.1H545.008V77.353H565.824V85.023H552.624V95.827H563.159V103.497H552.624V114.363L565.824 114.364ZM587.17 122.1V114.364L576.573 114.363V77.353H568.957V122.1H587.17ZM693.7 122.1V114.364H680.499V103.497H691.034V95.827H680.499V85.024H693.7V77.353H672.884V122.1H693.7ZM668.459 77.354H660.908L654.115 98.959L647.324 77.354H639.772V122.101H647.389V100.111L650.371 111.489H657.796L660.843 100.111V122.101H668.459V77.354ZM628.999 85.024H623.476V114.364H629L628.999 85.024ZM636.679 82.085C636.679 79.463 634.521 77.354 631.981 77.354L620.557 77.355C617.957 77.355 615.861 79.464 615.861 82.085V117.37C615.861 119.927 617.957 122.1 620.557 122.1H631.981C634.521 122.1 636.679 119.927 636.679 117.37V82.085ZM603.971 105.606L611.649 103.816V117.368C611.649 119.925 609.492 122.098 606.953 122.098H595.528C592.928 122.098 590.833 119.925 590.833 117.368V82.084C590.833 79.462 592.928 77.354 595.528 77.354H606.951C609.491 77.354 611.648 79.462 611.648 82.084V91.161L603.97 92.951V85.023H598.448V114.363H603.97L603.971 105.606ZM541.241 77.354H533.564L532.994 114.364H532.232L527.344 77.354H519.792L515.032 114.364H514.208L513.573 77.354H505.957L507.099 122.1H521.632L523.599 103.626L525.567 122.1H540.037L541.241 77.354Z" fill="#81B3D3"/>
<path fill-rule="evenodd" clip-rule="evenodd" d="M380.673 267.115C380.75 267.193 380.789 267.27 380.789 267.348C380.867 267.348 380.944 267.386 381.021 267.464C383.111 269.786 385.473 271.954 388.105 273.967C390.737 275.902 393.757 276.947 397.163 277.102C397.241 277.102 397.318 277.142 397.395 277.219H397.744C397.821 277.219 397.899 277.257 397.976 277.335H399.253C399.641 277.257 399.989 277.18 400.299 277.102C401.54 276.869 402.724 276.396 403.783 275.709C404.943 275.012 405.834 274.16 406.453 273.154L406.686 272.689L406.918 272.225C407.073 271.683 407.189 271.18 407.267 270.715C407.344 270.251 407.383 269.825 407.383 269.438C407.383 267.348 406.453 265.606 404.596 264.212C402.865 262.769 400.901 261.631 398.789 260.844C397.995 260.551 397.179 260.318 396.35 260.148C395.622 259.928 394.886 259.734 394.144 259.567H393.912C393.834 259.49 393.757 259.451 393.68 259.451C389.914 258.533 386.311 257.045 382.996 255.038C379.666 252.948 377.383 249.967 376.144 246.096C375.901 245.286 375.669 244.473 375.447 243.657C375.288 242.773 375.172 241.882 375.099 240.987C375.028 240.721 374.989 240.448 374.983 240.173V237.386C375.06 236.767 375.176 236.148 375.331 235.528C375.571 233.947 375.96 232.391 376.492 230.883C377.034 229.335 377.731 227.941 378.582 226.703C381.06 222.599 384.234 219.657 388.105 217.877C392.054 216.096 396.157 215.206 400.415 215.206C401.422 215.206 402.428 215.283 403.435 215.438C404.522 215.516 405.607 215.632 406.686 215.786C409.51 216.261 412.274 217.04 414.931 218.109C417.718 219.193 420.273 220.47 422.596 221.941L416.209 236.225C414.125 234.681 411.91 233.321 409.589 232.161C407.267 230.999 404.751 230.419 402.041 230.419H401.111C399.331 230.651 397.667 231.464 396.118 232.857C394.57 234.173 393.796 235.606 393.796 237.154V237.851C393.873 238.083 393.989 238.315 394.144 238.548C394.299 239.09 394.57 239.593 394.957 240.058C395.344 240.522 395.77 240.948 396.234 241.335C397.086 242.032 398.324 242.69 399.951 243.309C401.576 243.851 403.28 244.393 405.061 244.935C406.531 245.322 407.963 245.709 409.357 246.096C410.751 246.406 411.912 246.716 412.841 247.026C417.176 248.574 420.428 251.167 422.596 254.806C424.763 258.367 425.886 262.161 425.963 266.186V266.767C425.963 267.232 425.925 267.697 425.847 268.161V269.438C425.383 273.464 424.067 277.296 421.899 280.935C419.809 284.574 416.983 287.361 413.422 289.297C412.1 289.918 410.743 290.461 409.357 290.922C407.973 291.307 406.579 291.656 405.177 291.968C404.027 292.199 402.863 292.354 401.693 292.432C400.577 292.584 399.452 292.661 398.325 292.664H397.047C392.402 292.51 387.835 291.503 383.344 289.644C378.854 287.709 374.867 285.154 371.384 281.98L380.673 267.115ZM596.567 220.869C590.219 224.353 585.264 229.386 581.703 235.966L581.702 235.965C580.679 237.861 579.824 239.842 579.147 241.887C578.462 243.859 577.919 245.877 577.522 247.926C577.289 249.011 577.134 250.055 577.057 251.061C576.98 252.068 576.941 253.075 576.941 254.081C576.941 260.894 578.799 267.475 582.515 273.823C586.231 280.094 591.341 284.933 597.844 288.339C600.212 289.565 602.704 290.538 605.276 291.242C607.864 291.931 610.506 292.397 613.173 292.636H614.683C615.222 292.713 615.765 292.752 616.309 292.752C623.895 292.752 631.135 290.7 638.025 286.597C644.915 282.417 649.986 276.572 653.237 269.062C653.845 267.55 654.349 265.998 654.747 264.417C655.205 262.823 655.516 261.191 655.676 259.54C655.831 258.765 655.909 257.991 655.909 257.217C655.986 256.365 656.025 255.552 656.025 254.778C656.025 248.354 654.515 242.198 651.496 236.314C648.477 230.353 644.219 225.592 638.722 222.03C636.173 220.407 633.445 219.082 630.593 218.082C627.849 217.086 625.007 216.386 622.115 215.992C621.186 215.914 620.219 215.837 619.212 215.759C618.283 215.682 617.354 215.643 616.425 215.643C609.535 215.643 602.915 217.385 596.567 220.869ZM669.712 290.95V216.976H689.222L717.093 254.95C717.813 256.075 718.472 257.238 719.067 258.434C719.771 259.608 720.429 260.809 721.041 262.034L722.435 265.054C722.899 266.06 723.364 267.027 723.828 267.956C723.755 267.138 723.639 266.324 723.48 265.518C723.403 264.744 723.325 263.931 723.248 263.079C723.09 261.495 722.974 259.908 722.899 258.318C722.819 256.655 722.78 254.989 722.783 253.324V216.976H742.176V290.95H722.783L694.68 252.744C693.906 251.815 693.17 250.731 692.474 249.493C691.77 248.161 691.111 246.805 690.5 245.428C690.05 244.453 689.586 243.485 689.106 242.525C688.747 241.585 688.359 240.655 687.945 239.738C688.332 242.138 688.642 244.577 688.874 247.054C689.106 249.531 689.216 252.009 689.222 254.486V290.95H669.712ZM777.172 216.976L751.74 290.95H771.714L775.546 277.595H804.114L807.83 290.95H828.036L802.372 216.976H777.172ZM779.844 263.311L787.392 238.808C787.699 237.733 787.971 236.649 788.205 235.556C788.521 234.445 788.792 233.322 789.017 232.189C789.094 232.034 789.134 231.918 789.134 231.84C789.134 231.686 789.172 231.531 789.25 231.376C789.327 230.911 789.405 230.485 789.482 230.098C789.637 229.634 789.753 229.208 789.83 228.821C789.908 229.208 789.985 229.634 790.063 230.098C790.14 230.486 790.256 230.911 790.411 231.376C790.653 232.659 790.924 233.937 791.224 235.208C791.6 236.412 791.987 237.612 792.385 238.808L799.934 263.311H779.844ZM634.542 262.559C634.774 261.785 634.968 260.972 635.122 260.12C635.355 259.269 635.51 258.417 635.587 257.565C635.665 257.024 635.703 256.482 635.703 255.94C635.781 255.398 635.819 254.894 635.819 254.43C635.819 253.963 635.78 253.497 635.703 253.036V251.643C635.316 248.313 634.31 245.101 632.683 242.004C631.058 238.907 628.813 236.507 625.948 234.804C625.174 234.417 624.4 234.069 623.626 233.759C622.852 233.449 622.077 233.179 621.303 232.946C620.535 232.792 619.76 232.676 618.981 232.598C618.216 232.444 617.438 232.366 616.658 232.365C612.71 232.365 609.071 233.605 605.742 236.082C602.413 238.559 600.09 241.849 598.774 245.952L598.542 246.417V246.881C598.303 247.604 598.109 248.341 597.962 249.088C597.807 249.785 597.652 250.52 597.497 251.294L597.265 252.92V255.359C597.265 255.591 597.303 255.862 597.381 256.172C597.613 260.275 598.851 264.185 601.097 267.901C603.419 271.539 606.594 273.939 610.619 275.101L612.013 275.565C612.477 275.643 612.981 275.72 613.523 275.797L614.916 276.03H616.31C620.413 276.03 624.09 274.83 627.342 272.43C630.671 269.952 633.071 266.662 634.542 262.559ZM540.541 289.092C544.799 288.162 548.747 286.459 552.386 283.982H552.387C556.877 280.73 560.322 276.55 562.722 271.44C565.122 266.33 566.438 261.027 566.671 255.53V252.627C566.671 252.162 566.632 251.698 566.554 251.234C566.245 245.968 564.89 240.859 562.49 235.904C560.09 230.95 556.722 226.963 552.387 223.944C549.023 221.485 545.189 219.746 541.123 218.834C537.097 217.905 532.993 217.324 528.813 217.092C527.652 217.014 526.452 216.976 525.213 216.976H500.129V290.95H523.935C525.175 290.95 526.414 290.911 527.651 290.834C531.986 290.602 536.283 290.022 540.541 289.092ZM519.986 274.343C520.218 274.343 520.451 274.382 520.683 274.459H521.496C521.806 274.459 522.076 274.499 522.309 274.576H525.444C526.296 274.498 527.109 274.421 527.883 274.343C529.887 274.19 531.87 273.84 533.805 273.298C535.741 272.756 537.483 271.943 539.031 270.859C541.509 269.079 543.328 266.679 544.489 263.659C545.721 260.595 546.352 257.323 546.347 254.021V253.091C546.347 252.782 546.309 252.472 546.231 252.163C546.079 249.23 545.369 246.353 544.141 243.685C542.902 240.898 541.199 238.692 539.031 237.065C537.441 235.767 535.574 234.853 533.573 234.395C531.592 233.924 529.569 233.652 527.534 233.582H519.986V274.343ZM440.076 216.975V290.949H485.482V274.343H459.934V261.801H483.973V246.007H459.934V233.117H485.482V216.975H440.076ZM722.423 413.358C722.31 413.649 722.253 413.941 722.253 414.235C722.253 414.953 722.5 415.504 722.993 415.884C723.488 416.268 724.063 416.458 724.713 416.458C724.689 416.839 724.589 417.176 724.409 417.468C724.23 417.759 724.001 418.016 723.733 418.228C723.466 418.441 723.179 418.621 722.876 418.767C722.572 418.912 722.298 419.029 722.048 419.119L723.398 421.109C723.431 421.093 723.464 421.077 723.496 421.062L723.526 421.048L723.582 421.022C723.644 420.993 723.706 420.966 723.768 420.939C723.974 420.851 724.214 420.731 724.494 420.587C724.802 420.424 725.1 420.244 725.387 420.047C725.689 419.844 725.972 419.613 726.23 419.356C726.783 418.807 727.223 418.154 727.526 417.436C727.83 416.717 727.981 415.928 727.981 415.078C727.981 414.627 727.915 414.201 727.779 413.797C727.644 413.393 727.454 413.045 727.207 412.753C726.916 412.436 726.56 412.196 726.146 412.026C725.73 411.858 725.298 411.774 724.848 411.774C724.443 411.774 724.078 411.848 723.753 411.994C723.443 412.129 723.162 412.323 722.926 412.566C722.703 412.802 722.535 413.065 722.423 413.358ZM730.09 414.235C730.09 413.942 730.147 413.649 730.257 413.358C730.37 413.065 730.539 412.802 730.763 412.566C730.99 412.331 731.263 412.138 731.588 411.994C731.915 411.849 732.278 411.774 732.684 411.774C733.134 411.774 733.567 411.858 733.981 412.026C734.398 412.196 734.751 412.436 735.042 412.753C735.292 413.045 735.482 413.393 735.616 413.797C735.75 414.202 735.818 414.628 735.818 415.078C735.827 415.887 735.672 416.689 735.363 417.436C735.059 418.154 734.618 418.806 734.065 419.356C733.806 419.613 733.523 419.844 733.22 420.047C732.934 420.246 732.636 420.426 732.327 420.587C732.047 420.732 731.807 420.851 731.602 420.939C731.478 420.993 731.354 421.05 731.232 421.109L729.884 419.119C730.131 419.03 730.404 418.912 730.709 418.767C731.013 418.621 731.299 418.441 731.569 418.228C731.837 418.014 732.063 417.761 732.242 417.468C732.423 417.176 732.524 416.84 732.546 416.458C731.924 416.469 731.318 416.266 730.827 415.884C730.337 415.504 730.09 414.953 730.09 414.236V414.235ZM465.36 356.394C465.473 356.103 465.53 355.81 465.53 355.519H465.531C465.531 354.8 465.283 354.251 464.791 353.87C464.297 353.488 463.723 353.298 463.073 353.298C463.096 352.915 463.196 352.577 463.376 352.285C463.556 351.993 463.779 351.74 464.049 351.527C464.319 351.313 464.606 351.134 464.909 350.988C465.178 350.858 465.454 350.74 465.734 350.636L464.386 348.648C464.342 348.67 464.219 348.728 464.016 348.815C463.813 348.904 463.571 349.023 463.291 349.167C462.983 349.329 462.685 349.509 462.398 349.707C462.095 349.909 461.812 350.14 461.554 350.397C461.001 350.947 460.56 351.599 460.257 352.317C459.954 353.037 459.802 353.825 459.802 354.677C459.8 355.112 459.868 355.544 460.004 355.957C460.126 356.339 460.321 356.694 460.577 357.002C460.872 357.319 461.234 357.567 461.637 357.727C462.049 357.895 462.489 357.98 462.934 357.979C463.656 357.989 464.351 357.703 464.857 357.187C465.076 356.959 465.247 356.689 465.36 356.394ZM457.694 355.519C457.689 356.141 457.449 356.738 457.021 357.189C456.785 357.431 456.505 357.625 456.195 357.76C455.869 357.906 455.503 357.98 455.099 357.98C454.654 357.981 454.213 357.896 453.801 357.728C453.398 357.567 453.036 357.319 452.741 357.002C452.484 356.694 452.289 356.339 452.168 355.957C452.032 355.544 451.963 355.112 451.966 354.677C451.966 353.825 452.116 353.037 452.421 352.317C452.724 351.599 453.165 350.946 453.718 350.397C453.965 350.149 454.245 349.92 454.561 349.706C454.875 349.494 455.173 349.313 455.454 349.166C455.734 349.022 455.974 348.904 456.178 348.816L456.235 348.79C456.404 348.714 456.509 348.667 456.55 348.646L457.897 350.634C457.649 350.724 457.375 350.842 457.071 350.987C456.768 351.134 456.481 351.313 456.214 351.525C455.946 351.737 455.718 351.994 455.538 352.284C455.359 352.576 455.258 352.914 455.236 353.296C455.886 353.296 456.46 353.486 456.954 353.869C457.447 354.251 457.694 354.799 457.694 355.519ZM706.859 412.393H703.044L714.925 391.757H718.701L706.859 412.393ZM702.863 413.881C701.627 413.881 700.682 414.861 700.682 416.099C700.682 417.337 701.628 418.279 702.863 418.279C704.095 418.279 705.08 417.335 705.08 416.099C705.08 414.863 704.095 413.881 702.863 413.881ZM677.601 406.466L676.511 408.354C677.346 410.825 680.65 409.445 681.78 407.483L683.595 404.359C684.94 402.069 681.961 400.398 677.601 406.466ZM701.603 411.334C701.385 410.754 700.731 410.171 700.186 410.027L699.931 410.319C698.602 411.879 697.075 413.258 695.389 414.423C695.859 413.012 696.106 411.304 696.372 409.458C696.784 406.599 697.244 403.409 698.657 400.473L695.822 398.946C695.544 399.328 695.207 399.799 694.821 400.338L694.82 400.339L694.82 400.339C693.043 402.822 690.236 406.743 687.43 410.027C687.436 410.037 687.446 410.045 687.451 410.052C687.445 410.049 687.438 410.045 687.431 410.041C687.423 410.035 687.414 410.03 687.406 410.027L687.153 410.319C684.426 413.479 681.776 415.985 680.103 415.985C679.269 415.985 678.469 415.149 678.469 413.442V411.88C681.121 412.207 683.919 410.462 685.699 407.376L686.715 405.633C690.237 399.603 684.498 397.603 680.647 401.129L686.022 391.792H682.243L671.468 410.487C671.261 410.303 671.029 410.15 670.779 410.03L670.523 410.322C667.8 413.482 664.312 415.988 661.66 415.988C659.335 415.988 657.955 414.535 659.699 411.484L663.583 404.727C665.763 400.985 669.615 401.603 667.361 405.527L666.817 406.471H669.907L670.452 405.527C672.486 402.039 670.523 399.423 667.437 399.423C664.386 399.423 661.95 401.023 660.352 403.783L656.634 410.163C656.614 410.151 656.594 410.139 656.575 410.127C656.515 410.091 656.456 410.055 656.401 410.031L656.146 410.323C653.422 413.483 650.771 415.989 649.099 415.989C648.263 415.989 647.793 415.409 648.663 413.919L656.729 399.786H652.949L646.23 411.52C643.357 414.135 641.145 415.588 640.416 415.262C639.54 414.892 640.289 413.646 640.78 412.83C640.818 412.766 640.855 412.705 640.889 412.647L648.263 399.786H644.485L637.147 412.481C636.641 412.942 635.838 413.372 635.114 413.761C634.67 413.999 634.256 414.221 633.957 414.425C634.428 413.013 634.674 411.305 634.941 409.458V409.458L634.941 409.457C635.353 406.599 635.814 403.41 637.226 400.475L634.394 398.948C632.831 401.091 624.111 412.646 620.696 416.641C621.021 417.113 621.568 417.586 622.112 417.949C624.255 415.479 631.45 406.215 632.794 404.435C632.293 405.753 632.051 407.425 631.814 409.063C631.345 412.3 630.895 415.407 628.506 415.407C627.236 415.407 626.726 414.025 626.726 414.025L624.365 415.261C624.365 415.261 625.055 418.311 628.505 418.311C628.839 418.311 629.141 418.281 629.469 418.248L629.469 418.248L629.561 418.239C629.568 418.239 629.574 418.238 629.581 418.236C629.587 418.234 629.593 418.231 629.599 418.228C629.604 418.226 629.609 418.224 629.614 418.221L629.614 418.221C629.625 418.215 629.635 418.21 629.646 418.207L629.651 418.205L629.654 418.204C629.659 418.204 629.663 418.203 629.667 418.203C631.587 417.949 634.245 417.065 636.027 415.833C636.015 417.37 636.943 418.311 638.527 418.311C640.595 418.311 642.922 416.422 644.737 414.679C644.376 416.714 645.572 418.311 647.972 418.311C650.318 418.311 652.931 416.425 655.409 413.948C655.443 416.458 657.377 418.311 660.535 418.311C663.601 418.311 666.649 416.598 669.276 414.295L667.171 417.949H670.987L675.31 410.429V413.443C675.31 416.675 675.927 418.311 678.98 418.311C682.103 418.311 685.701 414.97 688.825 411.336C688.823 411.333 688.821 411.33 688.818 411.326C688.812 411.319 688.806 411.311 688.805 411.302C688.819 411.314 688.836 411.325 688.852 411.336C690.565 409.362 692.117 407.271 693.355 405.602C693.666 405.183 693.958 404.79 694.227 404.432C693.727 405.75 693.486 407.42 693.249 409.058C692.78 412.296 692.33 415.405 689.94 415.405C688.67 415.405 688.16 414.023 688.16 414.023L685.798 415.259C685.798 415.259 686.489 418.309 689.94 418.309C690.268 418.309 690.566 418.28 690.892 418.247L690.996 418.237C691.012 418.237 691.027 418.23 691.043 418.222C691.062 418.212 691.081 418.202 691.101 418.202C694.954 417.69 698.769 414.64 701.602 411.332L701.603 411.334ZM586.829 410.248H587.012L589.772 405.526C592.06 401.601 588.428 399.821 585.775 404.326L583.959 407.414L581.089 412.391C578.836 416.315 583.16 416.895 584.939 413.845L584.976 413.772C584.758 413.41 584.613 412.975 584.613 412.503C584.613 411.265 585.594 410.248 586.829 410.248ZM561.582 424.379C560.782 425.796 559.51 425.579 559.51 424.563C559.51 423.583 560.419 422.457 563.325 421.329L561.582 424.379ZM526.737 415.952C528.299 415.952 530.552 414.244 532.84 410.649L535.781 405.489C537.635 402.073 533.603 401.166 531.568 404.688L526.301 413.881C525.43 415.372 525.902 415.952 526.737 415.952ZM520.786 395.899C521.912 393.972 523.148 393.137 524.201 393.137C525.619 393.137 526.272 394.081 526.272 395.462C526.272 398.986 521.908 406.295 516.1 405.343H515.337L520.786 395.899ZM613.309 410.285L613.563 409.993L613.564 409.994C614.074 410.212 614.727 410.794 614.982 411.305C611.856 414.938 608.262 418.28 605.136 418.28C602.083 418.28 600.958 415.703 602.556 412.904L607.46 404.366C609.096 401.568 606.516 400.625 600.739 407.855L594.963 417.918H591.148L593.688 413.524C592.002 414.454 590.134 414.974 588.754 414.974H587.919C583.681 420.332 576.653 419.129 577.173 413.852C573.921 417.071 570.807 419.03 567.648 420.024L564.742 425.002C562.02 429.652 556.46 428.888 556.46 425.255C556.46 422.423 559.657 420.314 564.78 418.79L566.851 415.23C565.142 416.754 563.073 418.28 561.256 418.28C559.374 418.28 558.415 416.948 558.868 414.87C556.694 416.86 554.461 418.28 552.428 418.28C549.377 418.28 548.251 415.704 549.849 412.904L554.753 404.37C556.388 401.571 553.808 400.628 548.031 407.858L542.255 417.921H538.441L539.833 415.51C537.891 417.159 535.923 418.283 534.113 418.283C532.189 418.283 531.025 417.268 530.845 415.814C529.028 417.303 527.139 418.283 525.613 418.283C522.938 418.283 521.742 416.302 522.565 413.928L522.341 414.141L522.341 414.141C519.851 416.51 517.988 418.283 513.884 418.283C508.544 418.283 506.983 413.199 509.634 408.621L510.759 406.657C507.709 405.059 506.001 402.152 506.001 399.139C506.001 396.593 507.198 394.017 509.888 392.089L511.123 394.307C509.489 395.577 508.689 397.321 508.689 399.064C508.689 401.172 509.853 403.279 512.069 404.442L517.955 394.305C519.661 391.327 522.132 389.873 524.203 389.873C526.999 389.873 529.216 392.088 529.216 395.503C529.216 396.993 528.743 398.736 527.69 400.589C524.711 405.784 520.133 407.856 516.1 407.856C515.339 407.856 514.648 407.779 513.958 407.672L512.903 409.524C510.653 413.376 512.214 415.955 514.793 415.955C518.468 415.955 520.552 413.538 523.206 410.459L523.353 410.288L523.607 409.996C523.878 410.069 524.175 410.251 524.435 410.484L528.338 403.748C529.934 400.985 532.77 399.388 534.803 399.388C537.274 399.388 538.909 401.604 538.764 403.202H540.907L534.803 413.882C533.932 415.374 534.404 415.954 535.239 415.954C536.912 415.954 539.564 413.447 542.287 410.287L542.541 409.995C542.666 410.053 542.786 410.12 542.9 410.197L548.938 399.752H552.718L551.301 402.221C553.189 400.259 554.897 399.387 556.532 399.387C558.639 399.387 560.201 401.459 558.566 404.329L553.117 413.882C552.246 415.374 552.718 415.954 553.553 415.954C555.225 415.954 557.876 413.447 560.601 410.287L560.855 409.995C560.97 410.049 561.081 410.111 561.186 410.182L567.214 399.752H570.992L563.617 412.612L563.57 412.692L563.506 412.798C563.016 413.616 562.271 414.859 563.145 415.228C563.871 415.554 566.124 414.065 569.031 411.378L575.714 399.752H579.493L569.138 417.482C572.116 416.207 574.768 413.882 577.893 410.287L578.147 409.996C578.266 410.05 578.38 410.114 578.489 410.186L580.109 407.416L581.961 404.183C584.142 400.405 586.393 399.243 589.3 399.243C592.862 399.243 594.968 402.982 592.68 406.944L589.12 413.084C591.009 413.047 593.117 412.137 594.823 410.285L595.078 409.993C595.248 410.073 595.41 410.17 595.56 410.283L601.648 399.75H605.427L604.01 402.219C605.9 400.257 607.605 399.386 609.241 399.386C611.346 399.386 612.912 401.457 611.276 404.327L605.826 413.88C604.955 415.372 605.426 415.952 606.262 415.952C607.934 415.952 610.587 413.445 613.309 410.285ZM732.194 374.421C729.904 378.162 727.579 379.942 725.982 379.942C725.147 379.942 724.675 379.362 725.545 377.872L730.812 368.679C732.847 365.155 736.879 366.064 735.026 369.479H735.061L732.194 374.421ZM689.903 379.942C691.464 379.942 693.717 378.234 696.007 374.64L698.948 369.479C700.8 366.064 696.768 365.155 694.734 368.679L689.466 377.872C688.596 379.362 689.067 379.942 689.903 379.942ZM656.09 388.37C655.293 389.787 654.02 389.57 654.02 388.554C654.02 387.573 654.892 386.447 657.799 385.32L656.09 388.37ZM667.535 357.129C666.48 357.129 665.245 357.963 664.118 359.889L658.67 369.334H659.433C669.06 371.564 673.529 357.129 667.535 357.129ZM741.782 373.986L741.527 374.276C738.807 377.436 736.153 379.943 734.48 379.943C733.645 379.943 733.173 379.363 734.043 377.872L746.832 355.748H743.053L737.496 365.339C736.842 364.285 735.606 363.377 734.043 363.377C732.008 363.377 729.176 364.976 727.577 367.736L723.879 374.116C723.866 374.109 723.853 374.101 723.84 374.093L723.815 374.078C723.757 374.043 723.699 374.008 723.645 373.984L723.39 374.276C720.667 377.436 718.39 379.942 716.718 379.942C715.881 379.942 715.411 379.362 716.28 377.872L721.73 368.317C723.367 365.447 721.802 363.375 719.696 363.375C718.06 363.375 716.356 364.246 714.464 366.21L715.881 363.74H712.102L706.065 374.187C705.95 374.11 705.83 374.042 705.705 373.984L705.449 374.276C702.726 377.436 700.075 379.942 698.403 379.942C697.568 379.942 697.097 379.362 697.967 377.872L704.07 367.19H701.926C702.072 365.592 700.438 363.375 697.966 363.375C695.931 363.375 693.096 364.974 691.498 367.733L687.846 374.039L687.64 374.273C684.918 377.432 681.89 379.938 680.22 379.938C679.383 379.938 678.913 379.358 679.783 377.868L683.561 371.257C684.868 368.967 684.25 367.624 683.016 366.134L680.91 363.59C680.365 362.9 680.365 362.137 681.128 361.41L679.166 359.267C677.022 361.194 676.841 363.336 678.184 365.08L678.513 365.516L678.379 365.705L678.379 365.706C676.721 368.048 674.523 371.153 672.116 373.981C672.157 374.04 672.202 374.098 672.25 374.156C672.29 374.204 672.331 374.253 672.374 374.301C669.261 377.881 666.615 380.196 663.644 381.463L668.439 373.253H664.661L664.262 373.908C662.264 377.432 659.974 379.939 657.032 379.939C654.452 379.939 653.982 377.36 656.232 373.509L657.287 371.657C657.995 371.774 658.711 371.834 659.429 371.838C672.872 371.838 679.375 353.856 667.533 353.856C665.461 353.856 662.989 355.31 661.283 358.288L655.398 368.423C653.182 367.262 652.02 365.155 652.02 363.048C652.02 361.305 652.82 359.56 654.452 358.29L653.219 356.073C650.529 357.999 649.331 360.577 649.331 363.12C649.331 366.136 651.04 369.042 654.091 370.64L652.964 372.603C650.312 377.181 650.784 382.266 656.126 382.266C657.724 382.266 659.067 381.794 660.231 381.066L659.248 382.776C654.128 384.336 650.966 386.407 650.966 389.241C650.966 392.873 656.526 393.637 659.248 388.987L662.155 384.01C666.08 382.775 669.931 380.087 674.073 375.291C674.006 375.165 673.927 375.046 673.837 374.936C675.515 372.965 676.939 371.062 679.787 367.19L680.294 367.809C680.767 368.425 680.948 369.189 680.512 369.953L676.515 376.89C674.916 379.685 676.043 382.264 679.095 382.264C680.994 382.264 683.443 381.025 685.48 379.24C685.436 380.978 686.624 382.264 688.779 382.264C690.304 382.264 692.194 381.284 694.009 379.794C694.192 381.248 695.356 382.264 697.279 382.264C699.089 382.264 701.056 381.139 702.999 379.49L701.607 381.902H705.42L711.197 371.837C716.974 364.608 719.554 365.553 717.917 368.35L713.014 376.888C711.417 379.686 712.541 382.264 715.592 382.264C717.602 382.264 719.428 380.88 721.574 378.931C721.374 380.824 722.578 382.264 724.856 382.264C726.381 382.264 728.27 381.284 730.088 379.794C730.27 381.249 731.433 382.264 733.357 382.264C736.482 382.264 740.077 378.923 743.202 375.288C742.946 374.784 742.293 374.203 741.782 373.986ZM633.281 369.48C635.535 365.556 631.682 364.939 629.502 368.681L627.068 372.931C628.484 373.439 630.919 373.513 632.736 370.424L633.281 369.48ZM626.451 382.268C630.738 382.268 634.991 378.927 638.113 375.293C637.86 374.783 637.205 374.203 636.696 373.985L636.443 374.277C633.717 377.437 630.23 379.943 627.576 379.943C625.251 379.943 623.871 378.49 625.614 375.438L625.977 374.785C628.412 375.801 632.989 375.33 635.823 370.425L636.368 369.481C638.403 365.992 636.441 363.377 633.352 363.377C630.302 363.377 627.868 364.975 626.269 367.736L622.59 374.049C622.552 374.029 622.514 374.001 622.478 373.985L622.223 374.277C619.499 377.437 616.848 379.943 615.176 379.943C614.34 379.943 613.87 379.363 614.739 377.872L620.189 368.317C621.824 365.447 620.261 363.375 618.153 363.375C616.518 363.375 614.774 364.284 612.887 366.246L618.917 355.746H615.139L604.483 374.236C604.348 374.138 604.203 374.053 604.051 373.984L603.796 374.275C601.071 377.436 598.42 379.942 596.748 379.942C595.913 379.942 595.441 379.362 596.311 377.872L604.413 363.738H607.503L608.593 361.921H605.468L609.028 355.746H605.25L601.69 361.921H598.275L597.185 363.738H600.635L593.042 376.891C591.444 379.69 592.57 382.268 595.621 382.268C597.499 382.268 599.547 381.055 601.561 379.304L600.062 381.904H603.877L609.617 371.912C615.43 364.61 618.01 365.555 616.375 368.352L611.47 376.89C609.872 379.688 610.998 382.266 614.05 382.266C616.346 382.266 618.896 380.461 621.326 378.061C621.436 380.492 623.359 382.268 626.451 382.268ZM502.756 369.479C505.01 365.555 501.16 364.938 498.98 368.68L496.545 372.929C497.961 373.438 500.397 373.511 502.212 370.423L502.756 369.479ZM522.099 377.871L527.367 368.68C529.401 365.154 533.434 366.063 531.58 369.479L528.638 374.638C526.35 378.233 524.095 379.942 522.534 379.942C521.7 379.942 521.227 379.361 522.099 377.872V377.871ZM579.859 369.479C582.113 365.555 578.263 364.938 576.083 368.68L573.648 372.929C575.064 373.437 577.499 373.511 579.314 370.423L579.859 369.479ZM518.275 378.206C517.648 380.446 518.845 382.266 521.409 382.266C522.934 382.266 524.824 381.286 526.639 379.797C526.822 381.25 527.985 382.267 529.909 382.267C531.922 382.267 534.127 380.877 536.278 378.921C535.86 380.963 536.817 382.267 538.678 382.267C540.751 382.267 543.076 380.377 544.891 378.633C544.527 380.669 545.728 382.267 548.125 382.267C551.25 382.267 554.845 378.925 557.97 375.291C557.955 375.262 557.935 375.232 557.914 375.203C557.899 375.182 557.883 375.161 557.87 375.14C559.51 373.232 560.998 371.233 562.2 369.618L562.2 369.618L562.2 369.617L562.201 369.617L562.201 369.616C562.529 369.175 562.836 368.764 563.118 368.39C562.617 369.708 562.375 371.379 562.138 373.018V373.018C561.669 376.254 561.219 379.362 558.83 379.362C557.56 379.362 557.05 377.98 557.05 377.98L554.687 379.215C554.687 379.215 555.377 382.267 558.829 382.267C559.153 382.267 559.447 382.238 559.766 382.206L559.883 382.194C559.902 382.194 559.92 382.185 559.938 382.176C559.956 382.168 559.973 382.159 559.991 382.159C562.767 381.792 565.52 380.103 567.904 377.95C567.962 380.436 569.89 382.267 573.029 382.267C577.316 382.267 581.567 378.926 584.691 375.291C584.437 374.781 583.783 374.201 583.275 373.983L583.021 374.275C580.296 377.435 576.808 379.942 574.158 379.942C571.832 379.942 570.451 378.488 572.195 375.437L572.559 374.783C574.991 375.799 579.569 375.328 582.404 370.423L582.949 369.48C584.983 365.991 583.021 363.376 579.934 363.376C576.884 363.376 574.447 364.974 572.851 367.734L569.181 374.028C569.165 374.023 569.149 374.014 569.133 374.006C569.114 373.997 569.096 373.987 569.077 373.982L568.823 374.273C567.494 375.833 565.967 377.213 564.281 378.379C564.752 376.967 564.998 375.259 565.265 373.412V373.412L565.265 373.412C565.678 370.554 566.139 367.364 567.551 364.428L564.718 362.902C564.434 363.292 564.089 363.774 563.693 364.326L563.693 364.326C561.914 366.811 559.12 370.713 556.325 373.982C556.336 373.997 556.348 374.012 556.36 374.028C556.368 374.037 556.376 374.047 556.384 374.056L556.386 374.059L556.387 374.06C556.403 374.08 556.42 374.1 556.435 374.12L556.3 374.273C553.576 377.433 550.924 379.94 549.252 379.94C548.417 379.94 547.945 379.36 548.816 377.87L556.881 363.735H553.102L546.382 375.469C543.512 378.085 541.297 379.538 540.568 379.211C539.692 378.841 540.443 377.593 540.934 376.776L540.935 376.774L540.944 376.759C540.965 376.726 540.984 376.693 541.003 376.661C541.016 376.639 541.029 376.617 541.042 376.596L548.415 363.736H544.637L538.624 374.141L538.59 374.12C538.504 374.067 538.418 374.014 538.337 373.98L538.083 374.27C535.358 377.43 532.707 379.937 531.035 379.937C530.2 379.937 529.728 379.357 530.599 377.867L536.702 367.185H534.558C534.704 365.587 533.07 363.369 530.598 363.369C528.564 363.369 525.73 364.969 524.132 367.729L520.302 374.341C520.126 374.197 519.932 374.075 519.726 373.978L519.472 374.268C516.748 377.428 513.614 379.935 510.962 379.935C508.638 379.935 507.256 378.482 508.999 375.431L512.886 368.675C515.066 364.933 518.917 365.55 516.663 369.473L516.118 370.418H519.208L519.752 369.473C521.786 365.986 519.825 363.369 516.738 363.369C513.686 363.369 511.604 364.969 510.008 367.729L506.252 374.172C506.142 374.098 506.026 374.033 505.905 373.978L505.651 374.268C502.927 377.428 499.704 379.935 497.053 379.935C494.727 379.935 493.346 378.482 495.09 375.431L495.453 374.777C497.887 375.795 502.465 375.322 505.299 370.419L505.844 369.473C507.878 365.987 505.916 363.37 502.828 363.37C499.778 363.37 497.342 364.968 495.745 367.73L491.785 374.522C489.422 378.555 491.458 382.26 495.925 382.26C499.254 382.26 501.938 380.245 504.713 377.643C504.615 380.28 506.571 382.26 509.834 382.26C512.922 382.266 515.634 380.532 518.275 378.206ZM484.454 359.015L481.403 364.246V364.247C485.254 364.174 487.399 363.338 488.849 360.614C490.739 357.053 487.214 354.258 484.454 359.015ZM477.335 381.466C475.082 381.466 473.302 380.958 471.885 380.16C472.539 379.396 473.192 378.451 473.775 377.471L480.131 366.463L481.148 366.571C490.014 368.426 486.489 381.466 477.335 381.466ZM486.672 365.991C494.3 363.41 494.881 353.856 487.361 353.856C485.29 353.856 482.82 355.309 481.113 358.288L470.94 375.872C470.52 376.627 470.034 377.344 469.488 378.013C466.872 374.418 467.635 369.042 471.304 366.679L469.777 364.753C461.857 369.803 464.183 384.37 477.407 384.37C488.707 384.372 493.937 370.824 486.672 365.991Z" fill="white"/>
</svg>
