<svg version="1.2" baseProfile="tiny-ps" xmlns="http://www.w3.org/2000/svg" viewBox="0 0 32 32" width="32" height="32">
	<title>top menu-svg</title>
	<style>
		tspan { white-space:pre }
		.shp0 { fill: #81b3d3 } 
		.shp1 { fill: #23a9e1 } 
		.shp2 { fill: #ffffff } 
		.shp3 { fill: #491213 } 
		.shp4 { fill: #dc6243 } 
		.shp5 { fill: #f49774 } 
		.shp6 { fill: #f4b1a4 } 
	</style>
	<path id="Layer" class="shp0" d="M31.93 0L0 0L13.78 29.86C14.99 32.46 16.96 32.46 18.17 29.86L31.93 0Z" />
	<path id="Layer" class="shp1" d="M7.39 0.23L15.88 19.5L24.32 0.36L7.39 0.23Z" />
	<path id="Layer" class="shp2" d="M20.88 5.71C20 5.71 19.15 5.74 18.28 5.74C19.3 3.46 19.76 3.69 20.88 5.71Z" />
	<path id="Layer" class="shp2" d="M13.83 7.49C15.35 7.49 16.87 7.49 18.4 7.49C18.05 7.09 17.25 5.15 16.8 5.87C16.77 5.94 15.52 2.94 14.7 4.39C13.98 5.64 13.66 4.22 12.83 5.21C11.93 6.4 13.38 7.09 13.83 7.49Z" />
	<path id="Layer" fill-rule="evenodd" class="shp3" d="M24.61 0L24.61 7.65L15.93 27.58L15.88 27.71L7.22 7.42L7.22 0L24.61 0ZM9.39 4.12L10.34 6.27L10.34 0.59L9.39 0.59L9.39 4.12ZM9.26 0.59L8.4 0.59L8.4 1.88L9.26 3.83L9.26 0.59ZM12.56 0.59L11.59 0.59L12.56 2.94L12.56 0.59ZM11.43 0.59L10.47 0.59L11.43 4.19L11.43 0.59ZM10.46 6.27C10.59 5.97 10.92 5.34 11.4 4.65L10.46 1.12L10.46 6.27ZM11.57 4.45C11.7 4.26 11.84 4.06 12 3.86C12.15 3.66 12.34 3.43 12.53 3.23L11.57 0.96L11.57 4.45ZM12.7 3.04C12.95 2.77 13.23 2.51 13.52 2.28L12.7 0.89L12.7 3.04ZM13.76 2.11L13.76 0.59L12.73 0.59L13.66 2.18C13.69 2.14 13.71 2.11 13.76 2.11ZM16.92 1.39L17.78 0.59L16.92 0.59L16.92 1.39ZM15.93 1.29L16.68 0.59L15.93 0.59L15.93 1.29ZM15.78 0.59L15.06 0.59L15.78 1.25L15.78 0.59ZM14.84 0.59L13.96 0.59L14.84 1.42L14.84 0.59ZM13.88 1.98C14.13 1.81 14.41 1.68 14.68 1.55L13.88 0.79L13.88 1.98ZM14.96 0.79L14.96 1.45C15.16 1.39 15.35 1.35 15.56 1.32L14.97 0.79L14.96 0.79ZM16.17 1.32C16.38 1.35 16.56 1.39 16.75 1.45L16.75 0.82L16.17 1.32ZM17.04 1.55C17.33 1.68 17.61 1.85 17.87 2.01L17.87 0.79L17.04 1.55ZM17.99 2.11C18.02 2.14 18.04 2.14 18.07 2.18L18.99 0.59L17.99 0.59L17.99 2.11ZM20.31 4.19L21.27 0.59L20.31 0.59L20.31 4.19ZM19.18 2.9L20.16 0.59L19.18 0.59L19.18 2.9ZM18.22 2.28C18.52 2.51 18.79 2.77 19.05 3.04L19.05 0.89L18.22 2.28ZM19.2 3.2C19.41 3.43 19.61 3.66 19.78 3.89C19.92 4.09 20.06 4.26 20.18 4.42L20.18 0.96L19.2 3.2ZM20.33 4.62C20.77 5.25 21.08 5.81 21.27 6.14L21.27 1.12L20.33 4.62ZM21.41 6.4L22.35 4.35L22.35 0.59L21.41 0.59L21.41 6.4ZM22.49 4.06L23.34 2.14L23.34 0.59L22.49 0.59L22.49 4.06ZM7.85 0.59L8.28 1.55L8.28 0.59L7.85 0.59ZM10.69 7.09C11.37 4.81 12.38 4.47 13.45 6.96C13.86 7.95 13.88 8.74 14.17 8.78C14.72 8.84 14.77 7.55 15.2 7.36C15.69 7.16 15.85 7.52 16.09 7.72C16.36 7.92 16.56 7.85 16.68 8.35C16.86 9.01 16.87 9.63 17.45 9.83C18.6 10.19 19.46 8.48 20.64 8.18L21.3 6.7C21.29 6.66 20.65 5.41 19.7 4.19C18.81 3.04 17.4 1.65 15.88 1.65C14.34 1.62 12.97 2.97 12.06 4.12C11.11 5.34 10.49 6.63 10.49 6.63L10.47 6.6L10.69 7.09ZM10.68 7.13L15.86 18.97L10.69 7.09C10.68 7.1 10.68 7.11 10.68 7.13ZM24.01 0.59L23.46 0.59L23.46 1.81L24.01 0.59Z" />
	<path id="Layer" class="shp1" d="M15.18 23.39L15.88 21.25L16.56 23.39L15.88 25.53L15.18 23.39Z" />
	<path id="Layer" class="shp2" d="M11.21 10.66C11.29 10.85 11.36 11.08 11.35 11.35C11.33 11.55 11.19 11.88 11.29 11.94C11.41 11.65 11.55 11.32 11.67 11.02C11.57 10.95 10.75 9.11 10.75 8.87C10.56 9.07 10.39 9.27 10.2 9.44C10.23 9.67 10.42 9.44 10.52 9.44C10.66 9.47 10.76 9.63 10.87 9.83C10.58 10.29 9.86 11.48 9.77 11.51C9.74 11.51 9.58 11.32 9.58 11.48C9.58 11.58 9.74 11.81 9.75 11.88C9.87 12.17 10.01 12.47 10.13 12.77C10.23 12.67 10.11 12.54 10.16 12.37C10.22 12.24 11 10.95 11.21 10.66Z" />
	<path id="Layer" class="shp2" d="M10.3 8.35C10.37 8.31 10.4 8.48 10.47 8.31C10.34 7.98 10.2 7.69 10.06 7.36C9.99 7.22 9.93 7.06 9.94 7.36C9.96 7.55 8.9 9.24 8.83 9.27C8.74 9.34 8.69 9.14 8.64 9.3C8.76 9.6 8.9 9.86 9.02 10.16C9.05 10.26 9.1 10.36 9.14 10.46C9.19 10.56 9.17 10.23 9.17 10.26C9.16 10.09 9.26 9.96 9.33 9.86C9.58 9.44 10.23 8.35 10.3 8.35Z" />
	<path id="Layer" class="shp2" d="M8.8 8.05C8.49 8.21 8.16 7.98 8.08 7.39C7.99 6.8 8.18 6.14 8.44 5.81C8.68 5.48 9.05 5.48 9.19 6.07C9.24 6.33 9.22 6.63 9.17 6.89C9.14 7.06 9.07 7.22 9.19 7.32C9.34 6.96 9.48 6.6 9.63 6.24C9.45 6.04 9.38 5.67 9.24 5.38C9.09 5.01 8.88 4.68 8.64 4.62C8.15 4.49 7.68 5.48 7.65 6.33C7.63 6.83 7.72 7.26 7.85 7.65C7.99 7.98 8.18 8.18 8.27 8.58C8.32 8.61 8.73 8.25 8.83 8.15C8.81 8.12 8.81 8.08 8.8 8.05C8.68 8.12 8.8 8.05 8.8 8.05Z" />
	<path id="Layer" class="shp2" d="M15.52 20.06C15.32 19.79 14.84 18.51 14.73 18.31C14.72 18.28 14.7 18.21 14.68 18.18C14.68 18.18 14.63 18.24 14.65 18.24C14.61 18.28 14.67 18.44 14.63 18.54C14.49 18.94 13.64 20.19 13.6 20.26C13.5 20.39 13.4 20.19 13.35 20.35C13.47 20.65 13.83 21.51 13.86 21.54C13.95 21.58 13.88 21.28 13.9 21.21C13.91 21.08 14.34 20.42 14.49 20.16C14.55 20.06 14.61 20.29 14.65 20.39C14.7 20.55 14.73 20.72 14.7 20.92C14.68 21.05 14.58 21.21 14.65 21.31C14.75 21.08 15.06 20.39 15.09 20.32C15.14 20.22 14.99 20.32 15.01 20.29C14.94 20.35 14.89 20.35 14.82 20.29C14.8 20.26 14.63 19.93 14.65 19.89C14.72 19.76 14.82 19.56 14.9 19.53C15.06 19.46 15.18 20.02 15.2 20.22C15.21 20.42 15.21 20.62 15.18 20.82C15.16 20.95 15.09 21.05 15.18 21.11C15.3 20.78 15.42 20.49 15.54 20.16C15.57 20.09 15.54 20.06 15.52 20.06C15.5 20.02 15.56 20.06 15.52 20.06Z" />
	<path id="Layer" fill-rule="evenodd" class="shp2" d="M13.78 18.67C13.33 19.3 12.78 19.2 12.44 18.31C12.15 17.55 12.2 16.53 12.58 15.9C12.99 15.24 13.59 15.44 13.91 16.26C14.2 16.99 14.15 18.05 13.78 18.67ZM13.69 17.12C13.68 17.15 13.68 17.19 13.67 17.22C13.65 17.31 13.7 17.07 13.69 17.12ZM13.67 17.22C13.67 17.2 13.68 17.17 13.69 17.12C13.81 16.56 13.6 16.03 13.28 16.26C13.02 16.46 12.77 16.99 12.65 17.48C12.53 18.08 12.75 18.57 13.06 18.34C13.3 18.16 13.55 17.69 13.67 17.22Z" />
	<path id="Layer" class="shp2" d="M12.68 13.86C12.77 13.89 12.83 14.02 12.9 13.86C12.78 13.56 12.65 13.26 12.53 13C12.42 13.1 12.53 13.16 12.49 13.33C12.46 13.46 12.05 13.59 11.94 13.62C11.98 13.43 12.1 12.77 12.15 12.7C12.24 12.57 12.3 12.83 12.37 12.67C12.22 12.31 12.06 11.94 11.91 11.58C11.86 11.45 11.81 11.25 11.74 11.35C11.74 11.35 11.74 11.84 11.72 11.91C11.7 11.98 11.57 13.1 11.4 13.39C11.31 13.53 11.02 14.02 10.93 14.09C10.85 14.15 10.8 13.89 10.73 14.09C10.87 14.42 11.02 14.75 11.16 15.08C11.17 15.11 11.26 15.37 11.29 15.37C11.38 15.41 11.31 15.08 11.31 15.01C11.35 14.88 11.74 14.12 11.91 14.05C12.12 13.99 12.42 13.82 12.68 13.86C12.73 13.89 12.61 13.86 12.68 13.86Z" />
	<path id="Layer" class="shp4" d="M11.6 7.55C10.92 7.49 11.19 6.24 11.67 5.97C12.12 5.71 13.06 6.53 13.35 7.09C12.87 7.39 12.25 7.32 11.74 7.39C11.7 6.33 11.57 6.7 11.6 7.55Z" />
	<path id="Layer" class="shp4" d="M13.23 11.68C11.76 11.65 12.75 7.29 13.24 7.55C13.83 7.92 13.76 11.71 13.23 11.68Z" />
	<path id="Layer" class="shp4" d="M14.27 10.26C14.13 11.08 13.86 11.25 13.9 10.23C13.93 9.07 14.32 9.34 14.73 8.91C15.08 8.54 15.26 7.19 15.86 7.98C16.14 8.35 16.44 8.05 16.53 8.58C16.53 8.54 15.76 11.98 16.19 11.98C15.33 11.98 15.71 10.03 16.03 8.71C15.73 9.01 15.21 10.92 15.62 11.22C15.4 11.78 14.73 12.5 14.39 11.98C14.13 11.61 14.27 10.92 14.27 10.26Z" />
	<path id="Layer" class="shp4" d="M14.97 13.43C14.37 13.76 13.59 13.03 14.55 12.67C15.14 12.44 15.78 12.9 14.97 13.43C14.99 13.43 14.96 13.43 14.97 13.43Z" />
	<path id="Layer" class="shp4" d="M15.73 13.39C15.61 12.83 15.83 12.21 16.19 12.67C16.5 13.06 16.03 13.69 15.73 13.39Z" />
	<path id="Layer" class="shp4" d="M15.21 14.91C14.8 14.68 13.42 14.71 14.32 13.99C14.61 13.79 16.07 14.05 15.21 14.91Z" />
	<path id="Layer" class="shp4" d="M17.01 16C16.77 15.6 16.51 15.57 16.29 16C15.98 14.91 14.87 15.27 14.34 15.11C14.61 16.46 16.87 16.73 17.01 16Z" />
	<path id="Layer" class="shp4" d="M16.68 16.82C16.14 16.79 15.54 16.63 15.04 16.86C15.37 17.02 16.14 17.45 15.42 17.81C15.67 18.54 16.1 18.47 16.38 17.85C16.26 17.75 16.21 17.62 16.1 17.48C16.38 17.39 16.65 17.09 16.68 16.82Z" />
	<path id="Layer" class="shp4" d="M17.3 15.54C16.39 14.52 16.62 13.76 17.37 13.03C17.76 12.67 18.62 11.32 18.98 11.74C18.41 13.03 17.85 14.28 17.3 15.54Z" />
	<path id="Layer" class="shp5" d="M16.65 13.13C15.88 11.61 17.8 11.74 18.1 11.22C18.33 11.35 19.95 8.48 20.35 8.68C20.06 9.3 19.46 11.35 19.01 11.35C18.67 11.35 18.33 11.25 18.07 11.71C17.69 12.4 17.06 12.73 16.65 13.13Z" />
	<path id="Layer" class="shp6" d="M16.91 11.28C16.48 11.71 16.09 10 16.82 10.16C17.3 10.26 17.8 10.09 18.24 10.23C17.9 10.99 17.44 11.41 16.91 11.28Z" />
	<path id="Layer" class="shp2" d="M19.06 17.32C19.1 17.52 19.11 17.75 19.1 17.98C19.08 18.28 18.93 18.94 18.72 18.74C18.52 18.54 18.34 18.18 18.17 17.88C18.31 17.58 18.43 17.32 18.67 17.45C18.74 17.48 18.79 17.45 18.72 17.35C18.65 17.29 18.19 16.69 18.16 16.76C18.1 16.86 18.24 17.06 18.19 17.25C18.16 17.39 18.09 17.52 18.04 17.65C17.92 17.45 17.71 17.22 17.85 16.89C17.93 16.66 18.07 16.49 18.21 16.46C18.31 16.43 18.52 16.59 18.55 16.4C18.36 16.23 18.17 16.07 17.99 15.87C18.02 16.13 17.42 17.35 17.28 17.68C17.27 17.72 17.16 17.88 17.16 17.95C17.16 18.08 17.27 17.98 17.28 17.98C17.37 17.91 18.45 19.66 18.48 19.79C18.5 19.89 18.45 19.99 18.48 20.02C18.48 20.02 18.52 20.09 18.53 20.09C18.6 19.93 19.3 18.11 19.46 18.05C19.32 17.65 19.18 17.25 19.05 16.82C18.94 16.92 19.05 17.15 19.06 17.32Z" />
	<path id="Layer" class="shp2" d="M18 19.53C17.64 19.1 17.04 19.96 16.96 20.02C16.79 20.19 16.65 19.86 16.74 19.53C16.82 19.27 16.98 19.13 17.13 19.1C17.18 19.1 17.35 19.17 17.39 19.1C17.4 19.04 17.42 19.04 17.39 19C17.23 18.8 17.1 18.61 16.94 18.44C16.91 18.8 16.7 19 16.58 19.23C16.44 19.53 16.33 19.86 16.33 20.29C16.33 20.65 16.44 20.98 16.62 21.18C16.8 21.38 17.01 21.21 17.18 21.01C17.28 20.88 17.4 20.72 17.51 20.62C17.68 20.45 17.9 20.59 17.85 21.05C17.8 21.41 17.61 21.74 17.44 21.81C17.33 21.87 17.21 21.84 17.11 21.77C17.04 21.74 16.94 21.54 16.91 21.74C17.11 22 17.3 22.3 17.51 22.56C17.52 22.3 17.59 22.2 17.69 22.04C17.81 21.84 17.93 21.61 18.04 21.34C18.24 20.78 18.31 19.99 18 19.53Z" />
	<path id="Layer" class="shp2" d="M18 19.53C18.17 19.73 17.9 19.36 18 19.53L18 19.53Z" />
	<path id="Layer" fill-rule="evenodd" class="shp2" d="M24.37 6.6C24.21 6.99 23.84 7.85 23.8 7.92C23.79 7.92 23.75 7.85 23.75 7.85C23.72 7.79 23.77 7.72 23.77 7.62C23.72 7.13 23.31 7.36 23.17 7.52C23.1 7.59 22.95 7.75 23 7.88C23.03 8.02 23.19 8.54 23.24 8.61C23.34 8.81 23.38 8.51 23.46 8.64C23.5 8.68 23.26 9.17 23.19 9.34L23.15 9.4C23.14 9.47 23.14 9.47 23.12 9.5L23.08 9.6C23 9.8 22.91 9.96 22.83 10.16C22.73 10.09 22.79 10.03 22.81 9.9C22.81 9.8 22.67 9.5 22.62 9.5C22.47 9.5 21.53 9.57 21.22 9.6C21.48 10 22.14 11.08 22.23 11.12C22.31 11.12 22.33 10.92 22.4 11.05C22.42 11.08 22.42 11.08 22.4 11.12C22.3 11.35 22.19 11.61 22.09 11.84C21.99 11.78 22.09 11.58 22.02 11.45C21.99 11.35 20.95 9.67 20.86 9.73C20.77 9.8 20.81 9.83 20.76 9.73C20.76 9.7 20.74 9.73 20.76 9.7C20.83 9.53 20.91 9.34 20.98 9.17C21.12 8.84 21.24 8.54 21.37 8.25C21.48 8.31 21.39 8.58 21.54 8.54C21.58 8.54 21.92 8.51 22.04 8.51C21.97 8.38 21.73 7.98 21.66 7.95C21.58 7.95 21.54 8.12 21.49 7.95C21.54 7.82 21.6 7.72 21.65 7.59C21.68 7.52 21.77 7.22 21.8 7.22C21.89 7.19 21.82 7.49 21.84 7.52C21.87 7.62 22.93 9.44 23.05 9.3C23.12 8.91 22.33 6.37 22.19 6.5C22.11 6.43 22.14 6.37 22.19 6.27C22.28 6.1 22.35 5.94 22.42 5.77C22.49 5.61 22.55 5.44 22.62 5.28C22.69 5.11 22.69 5.51 22.74 5.54C22.84 5.71 24.16 6.7 24.28 6.47C24.3 6.5 24.32 6.53 24.37 6.6ZM23.02 7.19C23.08 7.13 23.14 7.09 23.17 7.06C22.98 6.89 22.78 6.73 22.57 6.56C22.67 6.86 22.76 7.16 22.84 7.46C22.9 7.36 22.96 7.26 23.02 7.19Z" />
	<path id="Layer" fill-rule="evenodd" class="shp2" d="M21.46 13.39C21.13 14.12 20.55 14.28 20.16 13.66C19.76 13.03 19.73 11.91 20.06 11.15C20.4 10.42 20.95 10.23 21.36 10.89C21.77 11.51 21.78 12.64 21.46 13.39ZM21.32 13.03C21.51 12.5 21.13 11.91 20.93 11.65C20.74 11.41 20.4 11.05 20.21 11.48C20 11.98 20.35 12.57 20.53 12.83C20.72 13.1 21.08 13.49 21.3 13.06C21.3 13.1 21.3 13.06 21.3 13.06C21.34 13 21.34 13 21.32 13.03Z" />
	<path id="Layer" class="shp2" d="M21.36 10.89C21.56 11.22 21.3 10.82 21.36 10.89L21.36 10.89Z" />
	<path id="Layer" class="shp2" d="M21.3 13.1C21.3 13.06 21.3 13.06 21.3 13.1C21.32 13.06 21.32 13.06 21.32 13.06C21.3 13.06 21.3 13.1 21.3 13.1Z" />
	<path id="Layer" fill-rule="evenodd" class="shp2" d="M20.23 13.89C20.47 14.32 20.57 14.94 20.41 15.54C20.35 15.87 19.61 17.62 19.58 17.58C19.51 17.45 19.59 17.45 19.56 17.29C19.54 17.19 18.55 15.6 18.48 15.51C18.4 15.41 18.33 15.6 18.26 15.44C18.43 15.04 18.6 14.65 18.77 14.25C19.15 13.36 19.73 13.16 20.23 13.89ZM19.44 14.32C19.27 14.22 18.96 14.45 18.82 14.75C18.79 14.81 19.83 16.46 19.88 16.36C20 16.16 19.97 16.23 20 16.13C20.33 15.37 19.82 14.48 19.44 14.32Z" />
</svg>